<svg width="216" height="198" viewBox="0 0 216 198" fill="none" xmlns="http://www.w3.org/2000/svg">
<path d="M86.1044 8.71191H1.89847C1.09322 8.71191 0.44043 9.36521 0.44043 10.1711V71.1913C0.44043 71.9972 1.09322 72.6505 1.89847 72.6505H86.1044C86.9096 72.6505 87.5624 71.9972 87.5624 71.1913V10.1711C87.5624 9.36521 86.9096 8.71191 86.1044 8.71191Z" fill="white"/>
<path d="M96.143 64.8256H90.9682C90.8507 64.8256 90.7379 64.7789 90.6548 64.6957C90.5717 64.6125 90.525 64.4997 90.525 64.3821C90.525 64.2645 90.5717 64.1516 90.6548 64.0685C90.7379 63.9853 90.8507 63.9386 90.9682 63.9386H96.143C96.412 63.9382 96.6699 63.831 96.8602 63.6407C97.0504 63.4503 97.1575 63.1922 97.1579 62.9229V1.9027C97.1575 1.63345 97.0504 1.37534 96.8602 1.18495C96.6699 0.994565 96.412 0.887431 96.143 0.88704H11.94C11.6709 0.88743 11.4129 0.99454 11.2226 1.18491C11.0322 1.37528 10.925 1.63338 10.9244 1.9027V6.0363C10.9244 6.15393 10.8777 6.26675 10.7946 6.34992C10.7115 6.4331 10.5988 6.47982 10.4813 6.47982C10.3637 6.47982 10.251 6.4331 10.1679 6.34992C10.0848 6.26675 10.0381 6.15393 10.0381 6.0363V1.9027C10.0389 1.39818 10.2395 0.914569 10.5961 0.557892C10.9526 0.201215 11.4359 0.000586495 11.94 0H96.143C96.647 0.000586909 97.1303 0.201239 97.4867 0.557937C97.8431 0.914636 98.0436 1.39825 98.0442 1.9027V62.9229C98.0436 63.4274 97.8431 63.911 97.4867 64.2677C97.1303 64.6244 96.647 64.825 96.143 64.8256Z" fill="#17161B"/>
<path d="M86.1042 73.0925H1.90121C1.39716 73.0919 0.913921 72.8912 0.557501 72.5345C0.201082 72.1778 0.000586596 71.6942 1.46247e-07 71.1898V10.1703C-0.000197311 9.66586 0.199562 9.18193 0.555428 8.82467C0.911294 8.46742 1.39422 8.26602 1.89827 8.26465H86.1012C86.6054 8.26523 87.0887 8.46586 87.4452 8.82254C87.8018 9.17922 88.0024 9.66283 88.0032 10.1673V71.1868C88.0034 71.6914 87.8035 72.1754 87.4475 72.5327C87.0915 72.89 86.6084 73.0913 86.1042 73.0925ZM1.90121 9.15169C1.63217 9.15208 1.37427 9.25921 1.18403 9.4496C0.993792 9.63999 0.886738 9.8981 0.886347 10.1673V71.1868C0.885954 71.4561 0.992254 71.7145 1.18194 71.9054C1.37163 72.0964 1.62924 72.2043 1.89827 72.2054H86.1012C86.3704 72.2052 86.6285 72.0982 86.8189 71.9078C87.0093 71.7174 87.1165 71.4592 87.1169 71.1898V10.1703C87.1172 9.90093 87.0108 9.64239 86.821 9.45143C86.6311 9.26046 86.3734 9.15267 86.1042 9.15169H1.90121Z" fill="#17161B"/>
<path d="M28.0321 19.1201H19.4456C19.426 19.1201 19.4102 19.136 19.4102 19.1556V27.5677C19.4102 27.5873 19.426 27.6032 19.4456 27.6032H28.0321C28.0517 27.6032 28.0675 27.5873 28.0675 27.5677V19.1556C28.0675 19.136 28.0517 19.1201 28.0321 19.1201Z" fill="white"/>
<path d="M28.0325 28.1215H19.446C19.2996 28.1213 19.1592 28.0629 19.0556 27.9593C18.952 27.8556 18.8938 27.7151 18.8936 27.5685V19.1557C18.8939 19.0092 18.9523 18.8689 19.0558 18.7654C19.1594 18.6619 19.2997 18.6037 19.446 18.6035H28.0325C28.1789 18.6037 28.3192 18.6619 28.4227 18.7654C28.5263 18.8689 28.5846 19.0092 28.585 19.1557V27.5685C28.5848 27.7151 28.5266 27.8556 28.423 27.9593C28.3194 28.0629 28.179 28.1213 28.0325 28.1215ZM19.9276 27.0866H27.5509V19.6384H19.9276V27.0866Z" fill="#17161B"/>
<path d="M23.7388 25.3593C23.5921 25.3591 23.4508 25.3043 23.3422 25.2056L20.7703 22.8675C20.6565 22.7614 20.589 22.6148 20.5825 22.4593C20.5761 22.3038 20.6311 22.1521 20.7356 22.0369C20.8402 21.9217 20.9859 21.8525 21.1412 21.8441C21.2965 21.8358 21.4488 21.889 21.5651 21.9922L23.648 23.8861L28.8752 16.6656C28.9208 16.6025 28.9783 16.549 29.0445 16.5081C29.1107 16.4673 29.1843 16.4399 29.2611 16.4275C29.3378 16.4151 29.4163 16.418 29.492 16.4359C29.5677 16.4539 29.6391 16.4866 29.7021 16.5322C29.7651 16.5777 29.8186 16.6353 29.8594 16.7015C29.9003 16.7678 29.9276 16.8414 29.94 16.9183C29.9524 16.9951 29.9495 17.0737 29.9316 17.1494C29.9136 17.2251 29.881 17.2966 29.8354 17.3597L24.2219 25.1146C24.1732 25.1819 24.1108 25.2381 24.0389 25.2796C23.967 25.3211 23.8871 25.347 23.8046 25.3556C23.7827 25.3581 23.7608 25.3593 23.7388 25.3593Z" fill="#FFC700"/>
<path d="M68.5196 21.8373L34.9529 21.804C34.8354 21.804 34.7227 21.7573 34.6396 21.6741C34.5565 21.5909 34.5098 21.4781 34.5098 21.3605C34.5098 21.2429 34.5565 21.1301 34.6396 21.0469C34.7227 20.9637 34.8354 20.917 34.9529 20.917L68.5189 20.9503C68.6364 20.9503 68.7492 20.997 68.8323 21.0802C68.9154 21.1633 68.9621 21.2761 68.9621 21.3938C68.9621 21.5114 68.9154 21.6242 68.8323 21.7074C68.7492 21.7906 68.6364 21.8373 68.5189 21.8373H68.5196Z" fill="#17161B"/>
<path d="M34.9529 25.871C34.8354 25.871 34.7227 25.8243 34.6396 25.7411C34.5565 25.6579 34.5098 25.5451 34.5098 25.4275C34.5098 25.3099 34.5565 25.1971 34.6396 25.1139C34.7227 25.0307 34.8354 24.984 34.9529 24.984L60.4782 24.9736C60.5958 24.9736 60.7085 25.0204 60.7916 25.1035C60.8747 25.1867 60.9214 25.2995 60.9214 25.4172C60.9214 25.5348 60.8747 25.6476 60.7916 25.7308C60.7085 25.8139 60.5958 25.8607 60.4782 25.8607L34.9522 25.871H34.9529Z" fill="#17161B"/>
<path d="M28.0321 36.7344H19.4456C19.426 36.7344 19.4102 36.7503 19.4102 36.7699V45.1819C19.4102 45.2015 19.426 45.2174 19.4456 45.2174H28.0321C28.0517 45.2174 28.0675 45.2015 28.0675 45.1819V36.7699C28.0675 36.7503 28.0517 36.7344 28.0321 36.7344Z" fill="white"/>
<path d="M28.0325 45.7357H19.446C19.2996 45.7355 19.1592 45.6772 19.0556 45.5735C18.952 45.4699 18.8938 45.3294 18.8936 45.1828V36.77C18.8939 36.6235 18.9523 36.4832 19.0558 36.3797C19.1594 36.2762 19.2997 36.218 19.446 36.2178H28.0325C28.1789 36.218 28.3192 36.2762 28.4227 36.3797C28.5263 36.4832 28.5846 36.6235 28.585 36.77V45.1828C28.5848 45.3294 28.5266 45.4699 28.423 45.5735C28.3194 45.6772 28.179 45.7355 28.0325 45.7357ZM19.9276 44.7008H27.5509V37.2527H19.9276V44.7008Z" fill="#17161B"/>
<path d="M23.7388 42.973C23.5922 42.973 23.4509 42.9184 23.3422 42.82L20.7703 40.4819C20.6565 40.3758 20.589 40.2292 20.5825 40.0737C20.5761 39.9183 20.6311 39.7665 20.7356 39.6513C20.8402 39.5362 20.9859 39.4669 21.1412 39.4585C21.2965 39.4502 21.4488 39.5034 21.5651 39.6067L23.648 41.4998L28.8752 34.28C28.9207 34.2169 28.9782 34.1634 29.0443 34.1225C29.1105 34.0816 29.184 34.0542 29.2608 34.0418C29.3375 34.0294 29.416 34.0322 29.4916 34.0501C29.5673 34.068 29.6387 34.1007 29.7017 34.1462C29.7648 34.1917 29.8183 34.2492 29.8591 34.3154C29.8999 34.3816 29.9273 34.4553 29.9398 34.5321C29.9522 34.6089 29.9493 34.6874 29.9314 34.7631C29.9135 34.8388 29.8809 34.9103 29.8354 34.9734L24.2219 42.729C24.1732 42.7963 24.1108 42.8525 24.0389 42.894C23.967 42.9356 23.8871 42.9614 23.8046 42.97C23.7827 42.9723 23.7608 42.9733 23.7388 42.973Z" fill="#FFC700"/>
<path d="M68.5196 39.4516L34.9529 39.4183C34.8354 39.4183 34.7227 39.3716 34.6396 39.2884C34.5565 39.2052 34.5098 39.0924 34.5098 38.9748C34.5098 38.8571 34.5565 38.7443 34.6396 38.6612C34.7227 38.578 34.8354 38.5312 34.9529 38.5312L68.5189 38.5645C68.6364 38.5645 68.7492 38.6112 68.8323 38.6944C68.9154 38.7776 68.9621 38.8904 68.9621 39.008C68.9621 39.1257 68.9154 39.2385 68.8323 39.3217C68.7492 39.4048 68.6364 39.4516 68.5189 39.4516H68.5196Z" fill="#17161B"/>
<path d="M34.9529 43.4853C34.8354 43.4853 34.7227 43.4386 34.6396 43.3554C34.5565 43.2722 34.5098 43.1594 34.5098 43.0418C34.5098 42.9241 34.5565 42.8113 34.6396 42.7282C34.7227 42.645 34.8354 42.5982 34.9529 42.5982L60.4782 42.5879C60.5958 42.5879 60.7085 42.6346 60.7916 42.7178C60.8747 42.801 60.9214 42.9138 60.9214 43.0314C60.9214 43.149 60.8747 43.2619 60.7916 43.345C60.7085 43.4282 60.5958 43.4749 60.4782 43.4749L34.9522 43.4853H34.9529Z" fill="#17161B"/>
<path d="M28.0321 52.2031H19.4456C19.426 52.2031 19.4102 52.219 19.4102 52.2386V60.6507C19.4102 60.6703 19.426 60.6862 19.4456 60.6862H28.0321C28.0517 60.6862 28.0675 60.6703 28.0675 60.6507V52.2386C28.0675 52.219 28.0517 52.2031 28.0321 52.2031Z" fill="white"/>
<path d="M28.0325 61.2042H19.446C19.2996 61.204 19.1592 61.1457 19.0556 61.0421C18.952 60.9384 18.8938 60.7979 18.8936 60.6513V52.2385C18.8938 52.0919 18.952 51.9514 19.0556 51.8477C19.1592 51.7441 19.2996 51.6857 19.446 51.6855H28.0325C28.179 51.6857 28.3194 51.7441 28.423 51.8477C28.5266 51.9514 28.5848 52.0919 28.585 52.2385V60.6513C28.5848 60.7979 28.5266 60.9384 28.423 61.0421C28.3194 61.1457 28.179 61.204 28.0325 61.2042ZM19.9276 60.1693H27.5509V52.7204H19.9276V60.1693Z" fill="#17161B"/>
<path d="M23.7388 58.4417C23.5922 58.4417 23.4509 58.3872 23.3422 58.2887L20.7703 55.9506C20.6565 55.8446 20.589 55.698 20.5825 55.5425C20.5761 55.387 20.6311 55.2352 20.7356 55.1201C20.8402 55.0049 20.9859 54.9356 21.1412 54.9273C21.2965 54.9189 21.4488 54.9722 21.5651 55.0754L23.648 56.9685L28.8752 49.7487C28.9207 49.6856 28.9782 49.6321 29.0443 49.5913C29.1105 49.5504 29.184 49.523 29.2608 49.5105C29.3375 49.4981 29.416 49.5009 29.4916 49.5189C29.5673 49.5368 29.6387 49.5694 29.7017 49.615C29.7648 49.6605 29.8183 49.718 29.8591 49.7842C29.8999 49.8504 29.9273 49.924 29.9398 50.0008C29.9522 50.0776 29.9493 50.1561 29.9314 50.2319C29.9135 50.3076 29.8809 50.379 29.8354 50.4421L24.2219 58.1978C24.1732 58.265 24.1108 58.3213 24.0389 58.3628C23.967 58.4043 23.8871 58.4302 23.8046 58.4388C23.7827 58.441 23.7608 58.442 23.7388 58.4417Z" fill="#FFC700"/>
<path d="M68.5196 54.9201L34.9529 54.8861C34.8354 54.8861 34.7227 54.8393 34.6396 54.7562C34.5565 54.673 34.5098 54.5602 34.5098 54.4425C34.5098 54.3249 34.5565 54.2121 34.6396 54.1289C34.7227 54.0458 34.8354 53.999 34.9529 53.999L68.5189 54.033C68.6364 54.033 68.7492 54.0798 68.8323 54.1629C68.9154 54.2461 68.9621 54.3589 68.9621 54.4766C68.9621 54.5942 68.9154 54.707 68.8323 54.7902C68.7492 54.8733 68.6364 54.9201 68.5189 54.9201H68.5196Z" fill="#17161B"/>
<path d="M34.9529 58.954C34.8354 58.954 34.7227 58.9073 34.6396 58.8241C34.5565 58.741 34.5098 58.6281 34.5098 58.5105C34.5098 58.3929 34.5565 58.2801 34.6396 58.1969C34.7227 58.1137 34.8354 58.067 34.9529 58.067L60.4782 58.0566C60.5958 58.0566 60.7085 58.1034 60.7916 58.1866C60.8747 58.2697 60.9214 58.3825 60.9214 58.5002C60.9214 58.6178 60.8747 58.7306 60.7916 58.8138C60.7085 58.897 60.5958 58.9437 60.4782 58.9437L34.9522 58.954H34.9529Z" fill="#17161B"/>
<path d="M79.857 116.568L99.008 144.065L102.565 145.047L99.8382 144.294L99.6426 142.673L99.0048 144.065C99.0048 144.065 96.9445 129.923 102.136 115.138C107.54 99.7492 114.043 94.5912 123.754 89.7737L123.488 90.3557L151.448 89.2704C143.191 93.339 131.462 92.242 123.428 90.4844L123.4 90.544C126.022 91.4622 139.46 95.6658 151.593 89.9992L152.048 89.0811C170.005 98.4097 178.586 104.508 188.082 125.698C195.417 142.062 202.348 160.033 199.653 167.617C197.895 172.565 192.994 177.062 182.972 173.555L188.458 186.875L118.24 196.569L114.479 164.817L114.939 163.889L114.573 163.333C111.556 172.042 107.75 180.428 100.88 180.271C94.0102 180.113 91.716 176.673 88.3694 171.103C77.6808 153.31 62.9153 127.675 62.9153 127.675L79.857 116.568Z" fill="#8053FF"/>
<path d="M124.202 61.0435C127.604 69.8274 134.923 75.8153 147.739 74.9471C159.072 74.2247 167.003 62.7926 167.496 50.6679C167.602 47.9846 166.894 43.2203 164.666 40.6498C166.355 29.3092 157.416 24.2576 152.172 22.9043C148.418 21.935 140.44 22.2244 134.375 21.0105C129.507 20.0359 126.042 16.8536 120.908 17.5995C118.393 17.9654 114.123 29.2773 117.67 36.7388C120.089 41.8287 122.56 41.9627 122.362 50.3402L124.202 61.0435Z" fill="#17161B"/>
<path d="M120.908 17.6002C126.041 16.8554 129.507 20.0366 134.375 21.0112C140.44 22.2251 148.418 21.9357 152.172 22.905C155.703 23.8168 160.905 26.4086 163.414 31.4644C160.703 27.4151 156.218 25.2616 153.065 24.4424C149.31 23.4742 141.104 23.438 134.975 22.6028C128.422 21.7091 126.312 19.0759 121.179 19.8217C118.664 20.1866 115.013 30.8154 118.562 38.2779C118.694 38.5556 118.826 38.8163 118.958 39.0674C118.483 38.3157 118.053 37.5366 117.669 36.7341C114.123 29.278 118.392 17.9662 120.908 17.6002Z" fill="white"/>
<path d="M117.786 37.2363L117.255 38.5695L116.165 46.6916C116.165 46.6916 115.387 49.3738 114.039 50.9687C112.691 52.5635 112.085 53.0625 112.019 53.4466C111.953 53.8307 111.806 54.9084 112.385 55.5319C112.963 56.1554 114.086 56.682 114.086 56.682C114.086 56.682 113.64 63.5583 114.29 65.6117C114.939 67.6651 117.116 70.0665 118.409 71.3485C119.703 72.6306 120.742 73.4009 121.547 73.5179C122.351 73.6349 125.898 74.2924 125.898 74.2924C125.898 74.2924 126.004 84.7957 124.099 89.8367C125.427 90.0356 137.838 91.7241 137.974 91.7092C146.565 90.7644 151.671 89.9665 151.191 89.0813C149.259 85.5266 149.712 74.9872 149.712 74.9872C149.712 74.9872 142.483 75.101 139.956 74.6297C137.429 74.1584 130.841 70.641 129.483 69.2281C128.124 67.8151 124.422 62.9934 124.815 61.1623C128.078 59.0685 128.766 57.6609 128.607 55.5808C128.447 53.5008 126.662 51.0314 124.832 50.6303C123.001 50.2292 122.35 49.7164 122.35 49.7164C122.35 49.7164 122.023 44.5616 120.775 42.6124C119.527 40.6633 119.132 40.059 118.941 39.7238C118.75 39.3887 117.786 37.2363 117.786 37.2363Z" fill="#FFE1D9"/>
<path d="M123.287 61.6035C124.115 61.5977 124.934 61.4187 125.69 61.0781C126.445 60.7374 127.122 60.2426 127.675 59.6253C128.229 59.008 128.648 58.2817 128.905 57.4931C129.162 56.7045 129.251 55.8708 129.168 55.0455C129.084 54.2202 128.83 53.4215 128.42 52.7004C128.01 51.9793 127.455 51.3518 126.789 50.858C126.123 50.3643 125.361 50.0151 124.552 49.833C123.744 49.6508 122.906 49.6396 122.093 49.8001C121.927 49.8341 121.781 49.9327 121.688 50.074C121.595 50.2154 121.562 50.388 121.596 50.5539C121.63 50.7199 121.728 50.8655 121.869 50.9588C122.011 51.052 122.183 51.0853 122.349 51.0513C122.976 50.9224 123.623 50.9249 124.249 51.0588C125.463 51.3146 126.527 52.0428 127.205 53.0832C127.883 54.1237 128.12 55.3911 127.865 56.6067C127.609 57.8223 126.882 58.8865 125.842 59.5652C124.802 60.2439 123.536 60.4815 122.321 60.2257C121.641 60.0858 121.002 59.795 120.449 59.3746C120.315 59.2719 120.145 59.2268 119.977 59.2494C119.81 59.2719 119.658 59.3602 119.555 59.4948C119.452 59.6294 119.407 59.7993 119.43 59.9671C119.452 60.1349 119.541 60.2869 119.675 60.3896C120.378 60.9276 121.192 61.3004 122.059 61.4801C122.463 61.5634 122.874 61.6048 123.287 61.6035Z" fill="#17161B"/>
<path d="M125.937 56.723C126.082 56.7228 126.223 56.6732 126.336 56.5823C126.449 56.4914 126.528 56.3646 126.559 56.223C126.79 55.1867 126.578 54.1536 125.977 53.3865C125.375 52.6194 124.456 52.1885 123.384 52.1651H123.37C123.286 52.1642 123.203 52.1799 123.125 52.2112C123.048 52.2425 122.977 52.2888 122.917 52.3475C122.857 52.4062 122.809 52.4761 122.777 52.5532C122.744 52.6304 122.726 52.7132 122.726 52.7971C122.725 52.8809 122.74 52.9641 122.772 53.0418C122.803 53.1196 122.849 53.1904 122.908 53.2503C122.967 53.3102 123.036 53.3579 123.113 53.3908C123.191 53.4236 123.273 53.441 123.357 53.4418C124.04 53.4567 124.614 53.7163 124.973 54.1749C125.332 54.6334 125.462 55.2846 125.314 55.9453C125.296 56.0271 125.294 56.1118 125.308 56.1945C125.323 56.2772 125.353 56.3562 125.398 56.4271C125.443 56.4979 125.501 56.5592 125.57 56.6074C125.639 56.6557 125.716 56.6899 125.798 56.7081C125.844 56.7178 125.89 56.7227 125.937 56.723Z" fill="#17161B"/>
<path d="M127.24 74.9314C128.08 74.9322 128.919 74.8746 129.751 74.759C129.917 74.7327 130.065 74.6425 130.164 74.5079C130.264 74.3732 130.306 74.2049 130.283 74.0392C130.259 73.8734 130.172 73.7235 130.039 73.6218C129.906 73.52 129.739 73.4745 129.573 73.495C125.834 74.027 120.676 73.3674 117.415 69.9489C114.591 66.9879 113.719 62.5226 114.821 56.6751L114.934 56.0772L114.343 55.9357C114.322 55.9357 112.216 55.3867 112.299 54.2664C112.347 53.6056 112.658 53.3333 113.545 52.6428C113.731 52.4981 113.941 52.3353 114.163 52.1534C115.258 51.2565 116.351 49.9797 116.936 46.7273C117.348 44.444 118.021 37.4858 118.05 37.19C118.066 37.0214 118.015 36.8533 117.907 36.7226C117.799 36.5919 117.644 36.5094 117.476 36.4932C117.307 36.4769 117.139 36.5284 117.009 36.6361C116.878 36.7438 116.796 36.8991 116.779 37.0677C116.773 37.139 116.083 44.2685 115.68 46.5006C115.197 49.1828 114.404 50.3021 113.355 51.1596C113.142 51.3309 112.951 51.4788 112.763 51.6288C111.844 52.3428 111.119 52.9056 111.027 54.1685C110.92 55.6708 112.317 56.5826 113.467 56.9975C112.446 62.9982 113.467 67.6487 116.492 70.8288C119.388 73.8663 123.595 74.9314 127.24 74.9314Z" fill="#17161B"/>
<path d="M145.312 75.6699C146.109 75.6699 146.93 75.6422 147.782 75.5848C153.287 75.2337 158.404 72.3536 162.187 67.4754C165.77 62.8536 167.882 56.8945 168.133 50.6938C168.239 48.0691 167.576 43.2526 165.337 40.4587C165.694 37.8105 165.504 35.3315 164.77 33.0855C164.094 31.0344 162.972 29.159 161.484 27.5945C158.183 24.0835 153.984 22.7131 152.332 22.2865C150.456 21.8024 147.692 21.63 144.491 21.4353C141.256 21.2343 137.59 21.0098 134.498 20.3884C132.727 20.0341 131.113 19.3628 129.551 18.7138C126.915 17.6168 124.189 16.4795 120.814 16.9732C119.698 17.1349 118.735 18.5329 118.123 19.6777C116.225 23.2281 114.266 31.0757 117.091 37.02C117.816 38.5446 118.549 39.6437 119.197 40.6129C120.74 42.926 121.854 44.5974 121.722 50.3321C121.72 50.4159 121.734 50.4993 121.764 50.5775C121.795 50.6557 121.84 50.7272 121.898 50.7879C121.956 50.8485 122.025 50.8972 122.101 50.9311C122.178 50.965 122.261 50.9834 122.345 50.9853H122.359C122.526 50.9854 122.686 50.9202 122.805 50.8037C122.924 50.6871 122.993 50.5286 122.997 50.3619C123.141 44.224 121.868 42.3174 120.258 39.9044C119.604 38.9245 118.928 37.9126 118.243 36.471C115.76 31.247 117.335 23.859 119.248 20.282C120.067 18.75 120.736 18.2765 120.996 18.2382C124.023 17.7988 126.47 18.817 129.062 19.8948C130.68 20.5672 132.353 21.263 134.247 21.6428C137.421 22.2812 141.133 22.5089 144.409 22.7068C147.414 22.894 150.257 23.0706 152.011 23.5239C153.445 23.8941 165.975 27.519 164.031 40.5566L163.989 40.8481L164.181 41.0704C166.313 43.5239 166.953 48.2446 166.855 50.6459C166.406 61.711 159.117 73.5856 147.696 74.3134C136.433 75.0752 128.513 70.4087 124.794 60.8162C124.764 60.738 124.718 60.6666 124.66 60.606C124.602 60.5453 124.533 60.4967 124.457 60.4629C124.38 60.429 124.297 60.4106 124.214 60.4087C124.13 60.4068 124.047 60.4215 123.968 60.4518C123.89 60.4821 123.819 60.5275 123.758 60.5854C123.698 60.6434 123.649 60.7127 123.615 60.7894C123.582 60.8661 123.563 60.9487 123.561 61.0326C123.559 61.1164 123.574 61.1998 123.604 61.2779C126.2 67.9606 132.061 75.6699 145.312 75.6699Z" fill="#17161B"/>
<path d="M150.959 89.5633C151.062 89.5634 151.162 89.5389 151.253 89.492C151.343 89.445 151.422 89.377 151.481 89.2936C151.539 89.2102 151.578 89.1139 151.592 89.0127C151.606 88.9115 151.595 88.8085 151.561 88.7121C149.977 84.2148 150.052 78.0078 150.344 75.05C150.353 74.9661 150.346 74.8811 150.322 74.8C150.299 74.719 150.259 74.6434 150.206 74.5777C150.153 74.512 150.087 74.4576 150.013 74.4174C149.939 74.3773 149.857 74.3523 149.773 74.344C149.689 74.3356 149.604 74.344 149.524 74.3686C149.443 74.3933 149.368 74.4338 149.303 74.4877C149.238 74.5416 149.184 74.6078 149.145 74.6826C149.106 74.7574 149.082 74.8393 149.075 74.9234C148.772 77.9876 148.7 84.4276 150.358 89.1356C150.401 89.2605 150.483 89.3688 150.591 89.4454C150.698 89.522 150.827 89.5632 150.959 89.5633Z" fill="#17161B"/>
<path d="M124.097 89.7196C124.229 89.7199 124.358 89.6791 124.466 89.6029C124.574 89.5266 124.656 89.4187 124.7 89.294C126.115 85.234 126.41 77.2821 126.328 74.2786C126.324 74.1122 126.255 73.9542 126.136 73.8381C126.016 73.7221 125.857 73.6572 125.69 73.6572H125.673C125.59 73.6594 125.507 73.6782 125.43 73.7124C125.354 73.7466 125.285 73.7956 125.227 73.8565C125.169 73.9175 125.124 73.9893 125.094 74.0677C125.064 74.1462 125.05 74.2298 125.053 74.3137C125.159 78.0854 124.734 85.3223 123.495 88.8738C123.439 89.0336 123.449 89.2091 123.523 89.3615C123.597 89.5139 123.728 89.6309 123.887 89.6866C123.955 89.7094 124.026 89.7205 124.097 89.7196Z" fill="#17161B"/>
<path d="M184.774 197.205C184.792 197.206 184.809 197.206 184.826 197.205C184.995 197.191 185.151 197.111 185.261 196.982C185.371 196.853 185.425 196.686 185.411 196.517C185.375 196.075 181.796 152.103 180.104 136.724C180.085 136.555 180.001 136.401 179.869 136.295C179.737 136.19 179.568 136.141 179.4 136.159C179.231 136.178 179.078 136.263 178.972 136.395C178.866 136.527 178.817 136.696 178.836 136.864C180.53 152.227 184.103 196.181 184.14 196.624C184.154 196.782 184.227 196.93 184.344 197.037C184.462 197.145 184.615 197.204 184.774 197.205Z" fill="#17161B"/>
<path d="M78.1611 117.018C78.1611 117.018 75.9818 108.002 73.5408 102.353C73.0529 101.225 71.1106 91.81 62.0124 82.7665C61.3746 82.1366 57.8663 80.0109 56.3535 81.0046C53.2109 83.0686 65.7089 93.8006 63.3222 94.4709C60.2392 91.5047 56.7915 88.3894 54.9799 87.7021C53.1684 87.0148 52.1021 86.4254 50.3022 85.8115C48.8139 85.3008 46.0073 85.7051 46.0009 86.9605C45.9945 88.216 46.4368 89.5034 48.074 90.6716C44.2234 91.1089 47.0906 95.1316 48.159 95.6572C47.1299 95.487 46.3847 95.853 46.0679 96.9446C45.7022 98.2032 47.1246 99.9066 47.8337 100.456C49.6771 101.896 53.7733 105.061 54.9757 107.015C56.1781 108.968 56.1451 112.466 56.9552 114.553C57.7653 116.639 57.8971 118.354 59.0315 120.007C60.1658 121.659 64.347 126.434 64.4534 126.289C64.5597 126.145 78.1611 117.018 78.1611 117.018Z" fill="#FFE1D9"/>
<path d="M78.4992 117.427C78.5615 117.427 78.6234 117.418 78.6831 117.401C78.8449 117.351 78.9806 117.24 79.0604 117.091C79.1401 116.942 79.1574 116.767 79.1084 116.605C78.9202 115.979 74.4647 101.186 71.0393 94.3076C68.2083 88.623 65.4824 84.2725 61.3778 81.518C58.0077 79.255 56.8542 79.9572 55.7911 81.0275C54.8024 82.0244 55.0778 83.3054 56.7479 85.4503C56.9978 85.7695 57.322 86.1727 57.6973 86.6355C59.5758 88.9507 62.7205 92.8277 63.4381 95.4503C63.4603 95.5312 63.4982 95.607 63.5496 95.6732C63.6011 95.7394 63.665 95.7949 63.7379 95.8364C63.8107 95.8779 63.8911 95.9046 63.9742 95.915C64.0574 95.9255 64.1418 95.9194 64.2227 95.8972C64.3035 95.875 64.3792 95.837 64.4453 95.7856C64.5115 95.7341 64.567 95.67 64.6084 95.5971C64.6499 95.5242 64.6766 95.4439 64.687 95.3606C64.6974 95.2774 64.6914 95.1929 64.6692 95.112C63.8782 92.2308 60.6293 88.224 58.687 85.8301C58.316 85.3737 57.996 84.979 57.7547 84.6672C56.0984 82.5394 56.5055 82.1244 56.7011 81.9265C57.3709 81.2509 57.9003 80.7179 60.6719 82.5777C64.5437 85.1769 67.1569 89.3741 69.9018 94.8769C73.2793 101.658 77.8454 116.82 77.8911 116.972C77.9303 117.103 78.0106 117.218 78.1201 117.3C78.2295 117.382 78.3625 117.427 78.4992 117.427Z" fill="#17161B"/>
<path d="M64.0681 127.199C64.1915 127.2 64.3124 127.165 64.4162 127.098C64.52 127.031 64.6022 126.936 64.6528 126.823C64.7034 126.71 64.7203 126.586 64.7015 126.464C64.6826 126.341 64.6288 126.228 64.5465 126.136C64.4998 126.082 59.8582 120.788 58.9503 118.972C57.462 116.006 56.8241 112.19 56.4052 109.666C56.2777 108.907 56.1682 108.253 56.0576 107.751C55.7206 106.204 53.926 104.658 51.6531 102.701C50.3774 101.599 48.9241 100.35 47.6951 99.0273C46.9191 98.1931 46.9244 97.709 47.0009 97.2483C47.1338 96.4493 47.5027 96.2844 47.6228 96.2302C49.074 95.5822 52.713 97.892 54.0834 98.7623C54.2833 98.889 54.4608 99.0017 54.6149 99.0943C57.4662 100.853 59.1002 102.378 61.2435 106.762C61.3179 106.914 61.4496 107.031 61.6097 107.085C61.7698 107.14 61.9451 107.129 62.0971 107.055C62.2491 106.98 62.3653 106.848 62.4201 106.688C62.4749 106.528 62.4639 106.352 62.3895 106.2C60.1208 101.562 58.2912 99.8625 55.2836 98.008C55.138 97.9186 54.9647 97.8091 54.7712 97.6888C52.8183 96.4483 49.1835 94.1406 47.1072 95.0694C46.5991 95.296 45.9506 95.8227 45.7465 97.042C45.6231 97.7867 45.6476 98.6996 46.7649 99.9008C48.0406 101.275 49.5216 102.549 50.825 103.672C52.7503 105.331 54.5692 106.897 54.8159 108.027C54.9222 108.502 55.0285 109.142 55.1508 109.884C55.5866 112.484 56.2447 116.413 57.8139 119.551C58.7951 121.514 63.3973 126.763 63.5929 126.986C63.6526 127.053 63.7258 127.106 63.8077 127.143C63.8896 127.18 63.9784 127.199 64.0681 127.199Z" fill="#17161B"/>
<path d="M65.3328 103.289C65.4461 103.289 65.5572 103.258 65.6549 103.201C65.7525 103.144 65.8332 103.061 65.8885 102.962C65.9438 102.863 65.9718 102.752 65.9696 102.638C65.9674 102.525 65.9351 102.414 65.876 102.318C62.2689 96.4286 54.387 90.8099 50.4609 90.3407C46.9739 89.9226 45.8449 90.2896 45.4292 91.9749C45.2017 92.8963 45.2336 94.6518 48.003 96.0552C48.0778 96.0944 48.1597 96.1184 48.2438 96.1257C48.328 96.133 48.4128 96.1236 48.4932 96.0979C48.5737 96.0721 48.6482 96.0307 48.7126 95.9759C48.7769 95.9211 48.8297 95.854 48.8679 95.7786C48.9062 95.7033 48.9291 95.621 48.9353 95.5367C48.9415 95.4524 48.9309 95.3677 48.9041 95.2875C48.8774 95.2073 48.835 95.1333 48.7794 95.0696C48.7238 95.006 48.6561 94.954 48.5803 94.9167C47.5405 94.3848 46.3647 93.5049 46.6666 92.2813C46.7804 91.8185 46.858 91.7047 47.127 91.6047C47.6405 91.4121 48.6812 91.4132 50.3089 91.6047C53.8788 92.0303 61.4099 97.4734 64.7842 102.98C64.8412 103.075 64.9217 103.153 65.0178 103.207C65.114 103.261 65.2225 103.289 65.3328 103.289Z" fill="#17161B"/>
<path d="M66.7608 99.5002C66.8852 99.4993 67.0067 99.4624 67.1105 99.3938C67.2518 99.3007 67.3503 99.1552 67.3844 98.9894C67.4185 98.8236 67.3854 98.651 67.2923 98.5097C62.6837 91.4983 55.5088 87.4042 54.7061 86.9606C52.1696 85.5593 48.337 83.441 45.9982 85.8732C45.3305 86.568 45.254 87.2563 45.3146 87.7223C45.5113 89.331 47.5174 90.595 48.4805 91.1972C48.5996 91.2717 48.7027 91.3366 48.7612 91.377C48.8301 91.4247 48.9077 91.4584 48.9896 91.4761C49.0715 91.4938 49.1561 91.4951 49.2385 91.4801C49.3209 91.4651 49.3996 91.434 49.47 91.3885C49.5404 91.3431 49.6012 91.2842 49.6489 91.2153C49.7452 91.076 49.7823 90.9042 49.7519 90.7376C49.7216 90.571 49.6265 90.4232 49.4873 90.3269C49.4055 90.2705 49.297 90.2024 49.1588 90.1141C48.488 89.6885 46.7041 88.5703 46.5807 87.5606C46.5595 87.3861 46.5712 87.1127 46.9178 86.752C48.4487 85.1561 51.2999 86.5307 54.0885 88.0724C54.8635 88.498 61.7865 92.4505 66.2271 99.2044C66.2843 99.2944 66.3631 99.3686 66.4563 99.4203C66.5495 99.472 66.6542 99.4994 66.7608 99.5002Z" fill="#17161B"/>
<path d="M145.668 106.778H175.516C187.973 106.778 198.071 116.886 198.071 129.352V186.812C198.071 189.399 197.045 191.88 195.217 193.709C193.389 195.538 190.91 196.566 188.326 196.566L123.111 196.814V129.352C123.111 116.885 133.21 106.778 145.668 106.778Z" fill="white"/>
<path d="M123.112 197.205C123.281 197.205 123.443 197.137 123.563 197.018C123.683 196.898 123.75 196.736 123.75 196.566V128.98C123.75 117.091 133.416 107.418 145.296 107.418H185.263C188.49 107.422 191.583 108.707 193.865 110.99C196.147 113.274 197.431 116.37 197.434 119.599V196.566C197.434 196.736 197.501 196.898 197.621 197.018C197.741 197.137 197.903 197.205 198.072 197.205C198.241 197.205 198.404 197.137 198.523 197.018C198.643 196.898 198.71 196.736 198.71 196.566V119.599C198.706 116.031 197.288 112.611 194.767 110.088C192.246 107.565 188.828 106.146 185.263 106.142H145.296C139.243 106.142 133.439 108.548 129.159 112.831C124.879 117.114 122.474 122.923 122.474 128.98V196.566C122.474 196.736 122.541 196.898 122.661 197.018C122.781 197.137 122.943 197.205 123.112 197.205Z" fill="#17161B"/>
<path d="M155.906 106.778H184.525C197.322 106.778 207.701 117.16 207.701 129.972L207.808 196.978L132.74 196.866V129.967C132.736 117.16 143.11 106.778 155.906 106.778Z" fill="#E0D5FF"/>
<path d="M132.736 197.205C132.905 197.205 133.067 197.137 133.187 197.018C133.307 196.898 133.374 196.736 133.374 196.566V128.98C133.374 117.091 143.04 107.418 154.92 107.418H185.512C197.392 107.418 207.058 117.091 207.058 128.98V196.566C207.058 196.736 207.125 196.898 207.245 197.018C207.365 197.137 207.527 197.205 207.696 197.205C207.865 197.205 208.028 197.137 208.147 197.018C208.267 196.898 208.334 196.736 208.334 196.566V128.98C208.334 122.923 205.929 117.114 201.649 112.831C197.369 108.548 191.565 106.142 185.512 106.142H154.918C148.865 106.142 143.061 108.548 138.781 112.831C134.501 117.114 132.096 122.923 132.096 128.98V196.566C132.096 196.65 132.113 196.733 132.145 196.811C132.177 196.889 132.224 196.959 132.284 197.018C132.343 197.078 132.414 197.125 132.491 197.157C132.569 197.189 132.652 197.205 132.736 197.205Z" fill="#17161B"/>
<path d="M118.264 197.205C118.289 197.206 118.315 197.206 118.34 197.205C118.508 197.185 118.661 197.099 118.765 196.966C118.87 196.833 118.918 196.664 118.898 196.496L115.138 164.743C115.128 164.659 115.102 164.579 115.061 164.506C115.02 164.433 114.965 164.368 114.899 164.316C114.833 164.265 114.758 164.226 114.677 164.204C114.596 164.181 114.512 164.174 114.429 164.184C114.345 164.194 114.265 164.22 114.192 164.261C114.119 164.302 114.055 164.357 114.003 164.423C113.951 164.489 113.913 164.565 113.89 164.645C113.867 164.726 113.861 164.811 113.87 164.894L117.632 196.646C117.651 196.8 117.726 196.942 117.843 197.045C117.959 197.148 118.109 197.205 118.264 197.205Z" fill="#17161B"/>
<path d="M176.694 107.214C176.816 107.214 176.935 107.179 177.038 107.113C177.14 107.047 177.222 106.953 177.273 106.842C177.324 106.732 177.342 106.608 177.325 106.488C177.308 106.367 177.257 106.253 177.178 106.161C171.012 98.9366 163.985 94.55 152.367 88.5142C152.217 88.4362 152.042 88.421 151.881 88.4721C151.719 88.5232 151.585 88.6363 151.507 88.7866C151.429 88.9368 151.414 89.1119 151.465 89.2734C151.516 89.4348 151.629 89.5693 151.779 89.6473C163.25 95.6054 170.178 99.925 176.208 106.99C176.268 107.06 176.343 107.117 176.427 107.155C176.511 107.194 176.602 107.214 176.694 107.214Z" fill="#17161B"/>
<path d="M137.251 92.6937C142.162 92.6937 147.38 91.999 151.755 89.8424C151.833 89.8069 151.903 89.7563 151.961 89.6933C152.018 89.6304 152.063 89.5565 152.092 89.476C152.12 89.3955 152.133 89.3101 152.128 89.2248C152.123 89.1395 152.101 89.056 152.063 88.9793C152.026 88.9027 151.973 88.8344 151.908 88.7785C151.844 88.7226 151.768 88.6802 151.687 88.654C151.606 88.6277 151.52 88.618 151.435 88.6255C151.35 88.633 151.267 88.6575 151.192 88.6976C141.89 93.281 128.453 90.9627 123.108 89.753C122.943 89.7157 122.769 89.7457 122.626 89.8361C122.483 89.9266 122.382 90.0703 122.345 90.2355C122.308 90.4007 122.338 90.574 122.428 90.7171C122.518 90.8603 122.662 90.9616 122.827 90.9989C125.825 91.6798 131.317 92.6937 137.251 92.6937Z" fill="#17161B"/>
<path d="M99.0281 144.703C99.059 144.703 99.0899 144.701 99.1206 144.697C99.2035 144.685 99.2833 144.656 99.3553 144.613C99.4274 144.571 99.4902 144.514 99.5404 144.447C99.5905 144.38 99.627 144.303 99.6476 144.222C99.6682 144.141 99.6727 144.056 99.6606 143.973C99.6553 143.938 99.1525 140.407 99.2864 135.132C99.4087 130.273 100.111 122.896 102.762 115.35C107.951 100.573 114.006 95.3348 124.061 90.347C124.137 90.3105 124.206 90.2592 124.262 90.1961C124.318 90.133 124.361 90.0593 124.389 89.9793C124.417 89.8994 124.428 89.8147 124.423 89.7303C124.417 89.6459 124.395 89.5634 124.357 89.4876C124.32 89.4118 124.268 89.3443 124.204 89.2888C124.14 89.2334 124.066 89.1913 123.985 89.1648C123.905 89.1384 123.82 89.1282 123.736 89.1348C123.652 89.1414 123.57 89.1647 123.495 89.2033C119.242 91.3152 114.765 93.8506 110.886 98.0606C107.133 102.133 104.169 107.494 101.558 114.928C98.8484 122.644 98.1329 130.174 98.0096 135.132C97.8767 140.508 98.3764 144.012 98.3977 144.159C98.4203 144.31 98.4964 144.448 98.6121 144.548C98.7278 144.648 98.8754 144.703 99.0281 144.703Z" fill="#17161B"/>
<path d="M101.099 180.908C104.878 180.908 108.081 178.525 110.886 173.631C113.306 169.407 115.067 164.037 116.771 158.842C117.856 155.534 118.88 152.409 119.974 149.946C120.008 149.869 120.027 149.787 120.029 149.703C120.031 149.619 120.017 149.535 119.986 149.456C119.956 149.378 119.911 149.306 119.853 149.245C119.795 149.184 119.726 149.136 119.649 149.101C119.572 149.067 119.489 149.049 119.406 149.047C119.322 149.045 119.238 149.059 119.16 149.089C119.081 149.12 119.01 149.165 118.949 149.223C118.888 149.281 118.839 149.35 118.805 149.427C117.684 151.95 116.65 155.104 115.554 158.444C113.871 163.576 112.131 168.884 109.775 172.994C107.173 177.535 104.279 179.704 100.916 179.628C94.4671 179.48 92.3738 176.488 88.9378 170.77C79.2114 154.58 65.9469 131.617 63.7899 127.875L79.7036 117.441L98.5016 144.429C98.6003 144.562 98.7473 144.652 98.9111 144.679C99.075 144.706 99.2429 144.668 99.3791 144.573C99.5153 144.478 99.6092 144.333 99.6406 144.17C99.6721 144.007 99.6387 143.838 99.5477 143.699L80.3967 116.202C80.3019 116.066 80.1576 115.972 79.9946 115.94C79.8316 115.909 79.6628 115.942 79.5239 116.033L62.5864 127.137C62.4506 127.227 62.354 127.365 62.3162 127.523C62.2785 127.681 62.3025 127.848 62.3834 127.989C62.5311 128.245 77.2744 153.833 87.8449 171.427C91.3107 177.196 93.7984 180.741 100.887 180.903C100.959 180.906 101.029 180.908 101.099 180.908Z" fill="#17161B"/>
<line x1="97" y1="197.5" x2="216" y2="197.5" stroke="#232227"/>
</svg>
