<svg width="22" height="22" viewBox="0 0 22 22" fill="none" xmlns="http://www.w3.org/2000/svg">
<path d="M4.09783 10.4685L2.50283 8.87354L0.916992 10.4685" stroke="black" stroke-linecap="round" stroke-linejoin="round"/>
<path d="M17.9023 11.5317L19.4973 13.1267L21.0923 11.5317" stroke="black" stroke-linecap="round" stroke-linejoin="round"/>
<path d="M19.4879 13.1267V11.0001C19.4879 6.30673 15.6838 2.51172 10.9996 2.51172C8.3229 2.51172 5.9304 3.75841 4.37207 5.69258" stroke="black" stroke-linecap="round" stroke-linejoin="round"/>
<path d="M2.51172 8.87354V11.0002C2.51172 15.6935 6.31589 19.4886 11.0001 19.4886C13.6768 19.4886 16.0693 18.2419 17.6276 16.3077" stroke="black" stroke-linecap="round" stroke-linejoin="round"/>
<path d="M8.25 7.7915H12.265C13.1542 7.7915 13.8692 8.59817 13.8692 9.39567C13.8692 10.2848 13.1542 10.9998 12.265 10.9998H8.25V7.7915Z" stroke="black" stroke-miterlimit="10" stroke-linecap="round" stroke-linejoin="round"/>
<path d="M8.25 11H12.8333C13.8417 11 14.6667 11.715 14.6667 12.6042C14.6667 13.4933 13.8417 14.2083 12.8333 14.2083H8.25V11Z" stroke="black" stroke-miterlimit="10" stroke-linecap="round" stroke-linejoin="round"/>
<path d="M10.8164 14.2085V15.8127" stroke="black" stroke-miterlimit="10" stroke-linecap="round" stroke-linejoin="round"/>
<path d="M10.8164 6.1875V7.79167" stroke="black" stroke-miterlimit="10" stroke-linecap="round" stroke-linejoin="round"/>
</svg>
