<svg width="22" height="22" viewBox="0 0 22 22" fill="none" xmlns="http://www.w3.org/2000/svg">
<path d="M1.83301 11.5586H17.4163" stroke="black" stroke-miterlimit="10" stroke-linecap="round" stroke-linejoin="round"/>
<path d="M17.4163 9.42307V15.9772C17.3888 18.5897 16.6738 19.2497 13.9513 19.2497H5.29804C2.52971 19.2497 1.83301 18.5622 1.83301 15.8306V9.42307C1.83301 6.94807 2.41051 6.15057 4.58301 6.02224C4.80301 6.01307 5.04137 6.00391 5.29804 6.00391H13.9513C16.7197 6.00391 17.4163 6.69141 17.4163 9.42307Z" stroke="black" stroke-linecap="round" stroke-linejoin="round"/>
<path d="M20.1663 6.16917V12.5767C20.1663 15.0517 19.5888 15.8492 17.4163 15.9775V9.42333C17.4163 6.69167 16.7197 6.00417 13.9513 6.00417H5.29804C5.04137 6.00417 4.80301 6.01333 4.58301 6.0225C4.61051 3.41 5.32554 2.75 8.04804 2.75H16.7013C19.4697 2.75 20.1663 3.4375 20.1663 6.16917Z" stroke="black" stroke-linecap="round" stroke-linejoin="round"/>
<path d="M4.8125 16.3262H6.38914" stroke="black" stroke-miterlimit="10" stroke-linecap="round" stroke-linejoin="round"/>
<path d="M8.35059 16.3262H11.504" stroke="black" stroke-miterlimit="10" stroke-linecap="round" stroke-linejoin="round"/>
</svg>
